<svg xmlns="http://www.w3.org/2000/svg"><path d="M92 18H55.5a5.2 5.2 0 00-5.2 5.2v4.4H9.5c-3.7 0-6.7 3-6.7 6.6V65c0 3.7 3 6.7 6.7 6.7h6.4v12.9a1.5 1.5 0 002.5 1l15.4-14h26.8c3.6 0 6.6-2.9 6.6-6.6V50.3h7.3l10.9 10a1.5 1.5 0 002.5-1.2v-8.8H92c2.9 0 5.2-2.3 5.2-5.2V23.2c0-2.8-2.3-5.2-5.2-5.2zM64.2 65c0 2-1.6 3.6-3.6 3.6H33.2c-.4 0-.7.1-1 .4L18.8 81V70c0-.7-.6-1.4-1.4-1.4h-8c-2 0-3.6-1.6-3.6-3.7V34.2c0-2 1.6-3.6 3.7-3.6H60.6c2 0 3.6 1.6 3.6 3.6V65zm30-19.9c0 1.2-1 2.2-2.2 2.2h-5.6c-.8 0-1.5.7-1.5 1.5v7l-8.8-8c-.3-.3-.7-.5-1-.5h-7.9v-13c0-3.8-3-6.7-6.6-6.7h-7.3v-4.4c0-1.2 1-2.2 2.2-2.2H92c1.2 0 2.2 1 2.2 2.2v22z" fill="#231f20"/></svg>